<?xml version="1.0" encoding="UTF-8"?>
<svg version="1.1" xmlns="http://www.w3.org/2000/svg" width="100" height="100">
<path d="M0 0 C33 0 66 0 100 0 C100 33 100 66 100 100 C67 100 34 100 0 100 C0 67 0 34 0 0 Z " fill="#FCFBFA" transform="translate(0,0)"/>
<path d="M0 0 C0.67863098 0.26019424 1.35726196 0.52038849 2.05645752 0.78846741 C3.48262081 1.33694041 4.90796288 1.88755303 6.33251953 2.44018555 C8.51942539 3.28662719 10.71065286 4.12111743 12.90234375 4.95507812 C14.28934075 5.49016473 15.67606936 6.02594766 17.0625 6.5625 C18.0483609 6.93603859 18.0483609 6.93603859 19.05413818 7.31712341 C23.65111496 9.11863616 23.65111496 9.11863616 24.765625 11.34765625 C20.12172739 13.46750634 15.47693409 15.58537669 10.83129883 17.70141602 C9.2509726 18.42157495 7.67089267 19.14227462 6.09106445 19.86352539 C3.82046992 20.90002362 1.54899728 21.93457518 -0.72265625 22.96875 C-1.78218254 23.45316811 -1.78218254 23.45316811 -2.8631134 23.94737244 C-5.63119461 25.20570628 -8.34725905 26.38528427 -11.234375 27.34765625 C-13.9676734 26.30522826 -16.54614302 25.19404048 -19.18359375 23.9453125 C-19.95621048 23.58876083 -20.72882721 23.23220917 -21.52485657 22.86485291 C-23.99488158 21.72240995 -26.4583292 20.5664949 -28.921875 19.41015625 C-30.593986 18.633871 -32.26650736 17.85846901 -33.93945312 17.08398438 C-38.04259483 15.18209661 -42.13988825 13.2681016 -46.234375 11.34765625 C-44.63006486 8.13903598 -41.28544403 7.53544651 -38.09375 6.2734375 C-37.37455383 5.98534714 -36.65535767 5.69725677 -35.91436768 5.4004364 C-34.38918354 4.79252872 -32.86250166 4.18836752 -31.33447266 3.58764648 C-29.00212408 2.66716111 -26.67889663 1.72593978 -24.35546875 0.78320312 C-22.87290782 0.19532178 -21.38984981 -0.39130785 -19.90625 -0.9765625 C-18.86691315 -1.40143196 -18.86691315 -1.40143196 -17.80657959 -1.83488464 C-10.88147517 -4.51068615 -6.63053219 -2.56429336 0 0 Z " fill="#DC602B" transform="translate(60.234375,5.65234375)"/>
<path d="M0 0 C11.46816709 5.08173395 22.84587417 10.25673322 34 16 C32.85049049 19.44852854 32.19963849 20.3569424 29 22 C26.0625 21.25 26.0625 21.25 23 20 C21.33911955 19.63893903 19.67381019 19.29537827 18 19 C14.92084002 25.15831996 15.69068413 31.45342063 17 38 C15.71186658 38.83878455 14.41936744 39.67086783 13.125 40.5 C12.40570313 40.9640625 11.68640625 41.428125 10.9453125 41.90625 C9 43 9 43 7 43 C0.65390723 28.43942166 -0.43060014 15.71359275 0 0 Z " fill="#B4223C" transform="translate(14,22)"/>
<path d="M0 0 C0.55015526 14.91532039 0.19971784 28.50826513 -7 42 C-11.24645065 42 -13.38524772 40.18249194 -17 38 C-16.83886719 37.45214844 -16.67773438 36.90429688 -16.51171875 36.33984375 C-15.93307762 33.69399615 -15.83127766 31.2702388 -15.8125 28.5625 C-15.79832031 27.63566406 -15.78414062 26.70882812 -15.76953125 25.75390625 C-16.01492438 22.82166627 -16.77798423 20.66138611 -18 18 C-21.72433382 19.2125738 -25.37802806 20.50859979 -29 22 C-30.70884005 20.37660195 -32.37446717 18.70680947 -34 17 C-34 16.34 -34 15.68 -34 15 C-29.48162525 12.85887804 -24.96093035 10.72276559 -20.43798828 8.59130859 C-18.89892423 7.86515108 -17.36050903 7.13761669 -15.82275391 6.40869141 C-13.61529016 5.36260124 -11.40555811 4.32144702 -9.1953125 3.28125 C-8.50567413 2.95314331 -7.81603577 2.62503662 -7.10549927 2.2869873 C-2.22774341 0 -2.22774341 0 0 0 Z " fill="#B4233D" transform="translate(86,22)"/>
<path d="M0 0 C1.485 1.0209375 1.485 1.0209375 3 2.0625 C8.00536012 4.99036656 13.38782982 4.91048506 19 4 C21.31076256 2.8674223 23.25073933 1.57399383 25.32421875 0.05859375 C27 -1 27 -1 29.75 -1 C32.14440924 0.06418188 34.00808837 1.30318639 36 3 C32.95057163 10.95423182 21.42429411 18.35297833 14 22 C4.71812443 19.3394946 -3.1003534 11.41633802 -10 5 C-8.234375 1.1640625 -8.234375 1.1640625 -6.125 -0.3125 C-3.45836788 -1.17523392 -2.60537392 -1.04214957 0 0 Z " fill="#DC622E" transform="translate(37,66)"/>
<path d="M0 0 C0.66 0.33 1.32 0.66 2 1 C2 2.32 2 3.64 2 5 C2.99 5.33 3.98 5.66 5 6 C5.44704333 9.05479605 5.43224942 11.22381018 3.91015625 13.95703125 C2.38826978 15.93911681 1.00288826 17.5010923 -1 19 C-4.875 19.4375 -4.875 19.4375 -8 19 C-8.33 18.01 -8.66 17.02 -9 16 C-9.66 16 -10.32 16 -11 16 C-11 12.63277693 -10.58291387 10.60725533 -8.22265625 8.1484375 C-6.80632874 6.94468718 -5.36906699 5.76505289 -3.91015625 4.61328125 C-1.77205649 2.95898375 -1.77205649 2.95898375 0 0 Z " fill="#F8F0EB" transform="translate(56,50)"/>
<path d="M0 0 C0.66 0.33 1.32 0.66 2 1 C1.9375 4.1875 1.9375 4.1875 1 8 C-0.66173461 9.57405515 -2.34249661 10.69367231 -4.30859375 11.859375 C-7.22137762 13.82365419 -7.96497055 15.82134981 -8.625 19.1875 C-8.74875 20.115625 -8.8725 21.04375 -9 22 C-11 20 -11 20 -11.375 16.75 C-10.80128286 11.01282862 -8.14179163 7.81775358 -3.8125 4.25 C-2.884375 3.5075 -1.95625 2.765 -1 2 C-0.67 1.34 -0.34 0.68 0 0 Z " fill="#B5354A" transform="translate(53,44)"/>
<path d="M0 0 C0.99 0.33 1.98 0.66 3 1 C2.45732133 4.7658611 1.075699 6.07280627 -1.875 8.375 C-5.33993616 11.25002768 -7.33486309 13.73308667 -9 18 C-9.33 18 -9.66 18 -10 18 C-10.39797622 14.16597555 -10.34716401 12.48532827 -8.06640625 9.296875 C-7.24011719 8.45640625 -6.41382813 7.6159375 -5.5625 6.75 C-2.40030141 3.64610024 -2.40030141 3.64610024 0 0 Z " fill="#DB6D40" transform="translate(49,41)"/>
<path d="M0 0 C0.66 0.33 1.32 0.66 2 1 C2.44704333 4.05479605 2.43224942 6.22381018 0.91015625 8.95703125 C-0.61173022 10.93911681 -1.99711174 12.5010923 -4 14 C-7.875 14.4375 -7.875 14.4375 -11 14 C-11.33 13.01 -11.66 12.02 -12 11 C-10.906875 10.896875 -9.81375 10.79375 -8.6875 10.6875 C-5.18165271 10.26452861 -5.18165271 10.26452861 -3.1875 8.875 C-1.42997555 6.09996139 -0.77706449 3.16803214 0 0 Z " fill="#DD784F" transform="translate(59,55)"/>
<path d="M0 0 C0.66 0.33 1.32 0.66 2 1 C1.64202701 3.8144083 1.17456212 4.84143361 -0.9609375 6.78125 C-1.75757813 7.3484375 -2.55421875 7.915625 -3.375 8.5 C-6.51532861 10.75039835 -8.82128017 12.79517341 -11 16 C-11 12.63277693 -10.58291387 10.60725533 -8.22265625 8.1484375 C-6.80632874 6.94468718 -5.36906699 5.76505289 -3.91015625 4.61328125 C-1.77205649 2.95898375 -1.77205649 2.95898375 0 0 Z " fill="#D96B3E" transform="translate(56,50)"/>
<path d="M0 0 C0.66 0.33 1.32 0.66 2 1 C1.08552154 2.08518111 0.16829593 3.16804738 -0.75 4.25 C-1.56984375 5.21679688 -1.56984375 5.21679688 -2.40625 6.203125 C-4 8 -4 8 -6.25 10 C-8.64221328 12.73395804 -9.19370985 15.50607601 -10 19 C-10.99 18.67 -11.98 18.34 -13 18 C-11.3114735 11.9494467 -8.61729354 8.25312204 -3.8125 4.3125 C-0.98352767 2.30609749 -0.98352767 2.30609749 0 0 Z " fill="#EAD5D1" transform="translate(52,43)"/>
<path d="M0 0 C0.66 0.33 1.32 0.66 2 1 C2.36630156 4.93774177 2.30233203 6.56539771 0 9.875 C-0.66 10.57625 -1.32 11.2775 -2 12 C-2.66 11.67 -3.32 11.34 -4 11 C-3.34 10.34 -2.68 9.68 -2 9 C-1.57862715 7.06008596 -1.57862715 7.06008596 -1.4375 4.9375 C-1 1 -1 1 0 0 Z " fill="#DC7145" transform="translate(59,55)"/>
<path d="M0 0 C0 1.66666667 0 3.33333333 0 5 C-2.76452033 6.38226016 -5.0461363 6.09525387 -8.125 6.0625 C-9.22070312 6.05347656 -10.31640625 6.04445313 -11.4453125 6.03515625 C-12.70988281 6.01775391 -12.70988281 6.01775391 -14 6 C-14 5.67 -14 5.34 -14 5 C-13.24074219 4.89042969 -12.48148438 4.78085938 -11.69921875 4.66796875 C-10.70535156 4.50941406 -9.71148437 4.35085937 -8.6875 4.1875 C-7.70136719 4.03667969 -6.71523438 3.88585937 -5.69921875 3.73046875 C-2.87300731 2.96563295 -1.8040872 2.24741238 0 0 Z " fill="#F6E9E1" transform="translate(58,65)"/>
<path d="M0 0 C0.66 1.32 1.32 2.64 2 4 C-1.16952847 7.26008643 -4.39937989 10.22237877 -8 13 C-8 12.01 -8 11.02 -8 10 C-3.65714286 6 -3.65714286 6 -1 6 C-0.67 4.02 -0.34 2.04 0 0 Z " fill="#E6CDC9" transform="translate(55,46)"/>
<path d="M0 0 C0.99 0.33 1.98 0.66 3 1 C1.07423885 3.43929746 -0.80090595 5.80090595 -3 8 C-2.25 2.25 -2.25 2.25 0 0 Z " fill="#DA754D" transform="translate(48,58)"/>
<path d="M0 0 C0.66 0 1.32 0 2 0 C2 0.99 2 1.98 2 3 C2.66 3.33 3.32 3.66 4 4 C3.34 4 2.68 4 2 4 C1.67 4.99 1.34 5.98 1 7 C-0.32 6.34 -1.64 5.68 -3 5 C-2.01 4.34 -1.02 3.68 0 3 C0 2.01 0 1.02 0 0 Z " fill="#E8D2D0" transform="translate(47,37)"/>
</svg>
