<?xml version="1.0" encoding="UTF-8"?>
<svg version="1.1" xmlns="http://www.w3.org/2000/svg" width="1024" height="1024">
<path d="M0 0 C337.92 0 675.84 0 1024 0 C1024 337.92 1024 675.84 1024 1024 C686.08 1024 348.16 1024 0 1024 C0 686.08 0 348.16 0 0 Z " fill="#007CB7" transform="translate(0,0)"/>
<path d="M0 0 C63.36 0 126.72 0 192 0 C192 156.09 192 312.18 192 473 C192.66 473 193.32 473 194 473 C194.16278442 472.1332666 194.16278442 472.1332666 194.32885742 471.24902344 C195.0886411 468.70296042 196.1466609 467.13778547 197.73828125 465.015625 C198.30514648 464.25338623 198.87201172 463.49114746 199.45605469 462.70581055 C200.06868164 461.89539307 200.68130859 461.08497559 201.3125 460.25 C201.94188477 459.40671143 202.57126953 458.56342285 203.21972656 457.69458008 C205.13993012 455.12472536 207.06870846 452.56152883 209 450 C210.58939614 447.88713617 212.17824343 445.77386114 213.7668457 443.66040039 C214.75553776 442.34523652 215.74495852 441.03062014 216.73510742 439.71655273 C219.93270544 435.46146452 223.05061369 431.15725391 226.125 426.8125 C231.60709015 419.07068414 237.23128016 411.38364827 243.41796875 404.1875 C245.40775211 401.82125039 247.1278092 399.36029277 248.8203125 396.7734375 C252.25650027 391.52803649 256.04566935 386.58728746 259.875 381.625 C264.66143679 375.38433937 269.410344 369.13392615 274.00390625 362.75 C276.69861199 359.03752869 279.43984459 355.36088729 282.1875 351.6875 C282.68733398 351.01678467 283.18716797 350.34606934 283.70214844 349.6550293 C285.93441713 346.67656419 288.18753313 343.74334886 290.59765625 340.90625 C293.01779603 337.97847115 295.13463297 334.96596381 297.25 331.8125 C300.79660052 326.59411127 304.62175875 321.7299817 308.67578125 316.890625 C311.76649206 313.04671576 314.57369313 309.02861027 317.40112305 304.98950195 C319.69576486 301.73909623 322.0612241 298.68159486 324.75 295.75 C327.92801213 292.27497739 330.13324351 288.50820228 332.47265625 284.4375 C334.42627001 281.31971231 336.75801108 278.74300636 339.234375 276.03515625 C341.06465415 273.92547608 342.61937621 271.74781831 344.1875 269.4375 C347.38622661 264.7708646 350.80346229 260.30996853 354.3125 255.875 C354.84061279 255.19880615 355.36872559 254.5226123 355.9128418 253.82592773 C357.22757451 252.17810959 358.60856124 250.58357978 360 249 C360.66 249 361.32 249 362 249 C362.3403125 247.453125 362.3403125 247.453125 362.6875 245.875 C363.88624279 241.63196797 365.97644679 239.17473087 369 236 C371.89553376 234.55223312 374.4013398 234.87399954 377.63761902 234.87301636 C378.67318065 234.87067637 378.67318065 234.87067637 379.72966272 234.86828911 C382.05571774 234.86428379 384.38170809 234.86746738 386.70776367 234.87060547 C388.37202493 234.86925086 390.03628588 234.86747059 391.70054626 234.86529541 C396.23956204 234.86071794 400.7785552 234.86251462 405.3175714 234.8656745 C410.09170451 234.86820863 414.86583569 234.86585649 419.63996887 234.86428833 C427.68958888 234.8624646 435.73919974 234.86487291 443.78881836 234.86962891 C453.01544767 234.87501839 462.2420547 234.87334895 471.46868342 234.8678025 C479.43007855 234.86321245 487.3914671 234.86265076 495.35286313 234.86524117 C500.08838183 234.86677893 504.82389021 234.86706928 509.55940819 234.86370468 C531.72748882 234.85004857 553.84871863 235.09478332 576 236 C575.25007291 240.51558863 573.92817104 242.74121957 570.9375 246.25 C569.71160156 247.70019531 569.71160156 247.70019531 568.4609375 249.1796875 C566.34975447 251.59917028 564.21584303 253.99313894 562.0625 256.375 C558.81584988 259.99901627 555.74696565 263.73172565 552.75 267.5625 C551.94046875 268.59503906 551.1309375 269.62757813 550.296875 270.69140625 C548.5891795 273.01058172 547.29600777 275.33488023 546.06640625 277.9375 C543.98800173 282.26656107 541.25222894 285.76388132 538.1875 289.4375 C537.11400887 290.74822764 536.04108929 292.0594236 534.96875 293.37109375 C534.45570313 293.99483887 533.94265625 294.61858398 533.4140625 295.26123047 C531.61913277 297.46832466 529.90112947 299.72944095 528.1875 302 C526.06738668 304.76648933 523.84736447 307.17202654 521.3125 309.5625 C518.94385691 311.84729732 517.42709155 313.81997467 516.0625 316.8125 C512.76880191 324.02265423 507.20381943 329.75551668 501.81616211 335.46972656 C497.38713081 340.172618 493.66787298 344.79223866 490.50390625 350.453125 C485.72901167 358.53943998 479.39786784 365.79417901 473.58154297 373.15307617 C469.30577518 378.57651922 465.117917 384.06536629 460.9375 389.5625 C460.24906006 390.46774414 459.56062012 391.37298828 458.85131836 392.30566406 C457.51132344 394.06798079 456.171396 395.83034883 454.83154297 397.59277344 C437.63614436 420.19296409 437.63614436 420.19296409 430.8125 427.5625 C426.21585651 432.60143221 422.12525725 437.96092029 418.01782227 443.39746094 C414.33724379 448.266342 410.58354217 453.0632734 406.75 457.8125 C403.02842396 462.43800102 399.34087583 467.08451349 395.75 471.8125 C395.02296875 472.76769531 394.2959375 473.72289062 393.546875 474.70703125 C391.81358182 476.81533887 391.81358182 476.81533887 392 479 C393.44814838 480.17411739 394.89715665 481.3471944 396.35107422 482.51416016 C399.13578712 485.02345283 401.02866313 488.06274133 403.0625 491.1875 C404.01881692 492.61723621 404.9772358 494.04556818 405.9375 495.47265625 C406.43507813 496.21402832 406.93265625 496.95540039 407.4453125 497.71923828 C410.07453646 501.57636928 412.81780259 505.34957811 415.5625 509.125 C416.66800919 510.64840815 417.77347853 512.17184523 418.87890625 513.6953125 C419.40887207 514.42524414 419.93883789 515.15517578 420.48486328 515.90722656 C422.67152457 518.92753925 424.83713862 521.96262107 427 525 C430.75179188 530.26382211 434.52666087 535.51061398 438.3125 540.75 C438.85962646 541.50724365 439.40675293 542.2644873 439.97045898 543.04467773 C442.74370707 546.88165963 445.519188 550.71701171 448.296875 554.55078125 C454.07734968 562.53420441 459.81171614 570.5464862 465.48291016 578.60791016 C470.7122617 586.03115549 476.0354208 593.38558073 481.36328125 600.73828125 C482.98509064 602.97939733 484.60265132 605.22351315 486.21875 607.46875 C491.16900378 614.34301645 496.13808484 621.20048803 501.18212891 628.00634766 C507.18982739 636.11298058 513.05444656 644.30294393 518.81787109 652.58496094 C524.24618719 660.3787649 529.79794668 668.07901147 535.37792969 675.76464844 C538.15318932 679.58919347 540.92047983 683.41949153 543.6875 687.25 C544.23156494 688.00297363 544.77562988 688.75594727 545.33618164 689.53173828 C548.9739875 694.56971673 552.5917429 699.62157334 556.19873047 704.68164062 C561.2098587 711.70564895 566.27069471 718.69378507 571.32666016 725.68554688 C574.59229533 730.20235771 577.85469618 734.721505 581.11767578 739.24023438 C583.86251144 743.04115775 586.60818127 746.84147332 589.35546875 750.640625 C594.76638103 758.12494392 600.17558213 765.61006693 605.52172852 773.14086914 C607.44955045 775.85213105 609.40254346 778.53847575 611.39453125 781.203125 C612.49861328 782.68039062 612.49861328 782.68039062 613.625 784.1875 C614.27726563 785.04730469 614.92953125 785.90710938 615.6015625 786.79296875 C617 789 617 789 617 792 C580.58802543 792.79289484 544.17378923 793.19593842 507.75513458 793.52910233 C504.17502804 793.56203974 500.59492935 793.59573559 497.01483154 793.62960815 C484.56272482 793.74648644 472.11068873 793.84922573 459.6582737 793.92714024 C453.23302226 793.9696416 446.80867638 794.03768195 440.38390541 794.12667561 C436.36397836 794.1791969 432.34400967 794.21571922 428.32387924 794.24864006 C426.45869302 794.26754668 424.59356263 794.29345966 422.72858047 794.3269062 C420.1819688 794.37178181 417.63629606 794.39182981 415.08935547 794.40600586 C414.3517889 794.42525808 413.61422234 794.44451031 412.85430527 794.46434593 C407.76060217 794.45627924 404.89817639 793.23790169 401 790 C399.44828785 787.57864698 398.14789075 785.30441126 396.875 782.75 C393.71562018 776.78364848 390.2472654 771.34651741 386.125 766 C382.14639858 760.83762014 378.28965478 755.64086283 374.625 750.25 C373.72008956 748.92054741 372.81514078 747.59112091 371.91015625 746.26171875 C371.21043701 745.23377197 371.21043701 745.23377197 370.49658203 744.18505859 C367.71481407 740.12358662 364.88777657 736.09377177 362.0625 732.0625 C361.46840332 731.21461914 360.87430664 730.36673828 360.26220703 729.49316406 C356.0341315 723.46426291 351.790155 717.44669594 347.53930664 711.43383789 C343.07615116 705.1172444 338.64300077 698.77983735 334.2109375 692.44140625 C330.00512178 686.42912782 325.77972501 680.43103251 321.54345703 674.44018555 C317.03462836 668.05952793 312.55895153 661.65587172 308.08569336 655.25024414 C304.21756611 649.71811672 300.29815343 644.22600378 296.34643555 638.75341797 C293.82001966 635.22732591 291.47199155 631.62406146 289.1875 627.9375 C286.80145571 624.10638664 284.2906524 621.1127793 281 618 C277 612.59459459 277 612.59459459 277 609 C276.37963867 608.74597412 275.75927734 608.49194824 275.12011719 608.23022461 C272.65208522 606.79811808 272.17231149 605.90159658 271.078125 603.31640625 C269.10746818 599.06227475 266.63607554 595.61210478 263.75 591.9375 C256.49580251 582.4818251 249.76242009 572.6809364 242.99169922 562.87646484 C239.90946591 558.42502175 236.79844325 553.99390317 233.6875 549.5625 C230.38758555 544.86111165 227.0967176 540.15492477 223.859375 535.41015625 C223.36477783 534.68562256 222.87018066 533.96108887 222.3605957 533.21459961 C221.44999944 531.87752748 220.54202795 530.53866162 219.63745117 529.19750977 C217.66891608 526.30521459 215.65737218 523.53414861 213.390625 520.8671875 C211.26680402 518.31999044 209.53086122 515.82712387 207.8125 513 C204.96221751 508.41028024 201.91855421 504.00519136 198.76171875 499.625 C198.30196655 498.98433594 197.84221436 498.34367187 197.36853027 497.68359375 C196.24713085 496.12135829 195.12376963 494.56053136 194 493 C193.99576806 494.24934074 193.99153612 495.49868149 193.98717594 496.78588104 C193.88571707 526.68280966 193.7798728 556.57971942 193.66888306 586.47661403 C193.65511934 590.18509283 193.64139137 593.89357176 193.62768555 597.60205078 C193.62495724 598.34010419 193.62222894 599.0781576 193.61941796 599.83857626 C193.57576995 611.66898452 193.53499394 623.49940093 193.49534739 635.3298232 C193.45436597 647.53872108 193.41014075 659.74760437 193.36312145 671.9564805 C193.33691213 678.78457539 193.31213108 685.61266816 193.29092598 692.44078064 C193.27077115 698.91522728 193.2464908 705.38964732 193.21950912 711.86406898 C193.2104385 714.19501047 193.20266838 716.52595761 193.19658089 718.8569088 C193.13113145 743.24888322 192.508213 767.60577592 192 792 C128.64 792 65.28 792 0 792 C0 530.64 0 269.28 0 0 Z " fill="#FCFCFC" transform="translate(225,112)"/>
<path d="M0 0 C26.73 0 53.46 0 81 0 C81 337.92 81 675.84 81 1024 C54.27 1024 27.54 1024 0 1024 C3.31631654 1022.34184173 6.41049474 1021.21950225 9.9387207 1020.1496582 C35.28370966 1012.34028535 55.04078053 996.2348703 68 973 C74.21233856 960.58909747 79.11904732 946.80168584 79.12880117 932.79849738 C79.13207336 931.56523116 79.13534555 930.33196494 79.13871691 929.06132701 C79.13730697 927.69820619 79.13580497 926.33508546 79.13422108 924.97196484 C79.13617485 923.51368032 79.13856402 922.05539633 79.14134905 920.59711316 C79.14774898 916.57598452 79.14791067 912.55487586 79.14707164 908.53374309 C79.14724114 904.16409157 79.15314731 899.79444721 79.1583125 895.42479926 C79.16764164 886.75176836 79.17156108 878.07874255 79.17383147 869.40570726 C79.17679273 859.01947331 79.18548973 848.63324614 79.19424575 838.24701574 C79.21509464 813.14103339 79.22556079 788.03504986 79.23437535 762.92906087 C79.23858137 751.05267711 79.24380343 739.17629385 79.24905988 727.29991051 C79.26695077 686.64817447 79.28194679 645.99643829 79.28938007 605.34469891 C79.28985483 602.79232241 79.29033072 600.23994592 79.29080774 597.68756943 C79.29104411 596.42181567 79.29128049 595.15606191 79.29152403 593.85195198 C79.29272523 587.43898035 79.29394068 581.02600873 79.29516602 574.61303711 C79.29540617 573.34036167 79.29564632 572.06768623 79.29589374 570.75644487 C79.30378638 529.4948104 79.32721712 488.23320467 79.35972196 446.97158275 C79.39402245 403.3509295 79.41373144 359.73029307 79.41702431 316.10962611 C79.41744185 311.32065601 79.41792142 306.53168592 79.41844749 301.74271584 C79.41857069 300.56353052 79.41869388 299.3843452 79.4188208 298.169427 C79.42115259 279.19520484 79.43681142 260.22101608 79.45728934 241.24680583 C79.47754876 222.17234095 79.48302408 203.09791617 79.47351871 184.02344253 C79.46830417 172.69361036 79.47417907 161.36391171 79.49605338 150.03409876 C79.50956966 142.4604688 79.50847711 134.88693067 79.49565142 127.31329978 C79.48876036 123.00156116 79.48806597 118.69007765 79.50521151 114.3783619 C79.88043171 90.86181575 79.88043171 90.86181575 75 68 C74.77149087 67.336709 74.54298174 66.673418 74.30754808 65.99002727 C65.57018091 40.93618416 48.15383582 21.07691791 24.484375 9.2421875 C16.51740716 5.68741934 8.42811979 3.17747776 0 1 C0 0.67 0 0.34 0 0 Z " fill="#000000" transform="translate(943,0)"/>
<path d="M0 0 C63.36 0 126.72 0 192 0 C192.33 156.42 192.66 312.84 193 474 C192.34 474 191.68 474 191 474 C191 317.91 191 161.82 191 1 C128.63 1 66.26 1 2 1 C2 261.37 2 521.74 2 790 C64.37 790 126.74 790 191 790 C191 690.67 191 591.34 191 489 C191.99 489.33 192.98 489.66 194 490 C193.89446577 521.54107175 193.78457151 553.08212483 193.66888306 584.62316084 C193.65511926 588.37670347 193.6413913 592.13024622 193.62768555 595.88378906 C193.62495724 596.63081431 193.62222894 597.37783957 193.61941796 598.14750195 C193.57576402 610.12340712 193.53498992 622.09932037 193.49534739 634.07523942 C193.45437324 646.43329883 193.4101487 658.79134377 193.36312145 671.14938164 C193.33690636 678.06131331 193.31201756 684.97324349 193.29092598 691.88519287 C193.27077911 698.43843383 193.24650008 704.99164843 193.21950912 711.54486465 C193.21043461 713.90483222 193.20266554 716.26480539 193.19658089 718.62478256 C193.13175787 743.0943405 192.50983242 767.52804381 192 792 C128.64 792 65.28 792 0 792 C0 530.64 0 269.28 0 0 Z " fill="#B7D2E0" transform="translate(225,112)"/>
<path d="M0 0 C1.65815827 3.31631654 2.78049775 6.41049474 3.8503418 9.9387207 C11.65971465 35.28370966 27.7651297 55.04078053 51 68 C60.01295329 72.51147828 69.2785613 75.4883821 79 78 C79 78.33 79 78.66 79 79 C52.93 79 26.86 79 0 79 C0 52.93 0 26.86 0 0 Z " fill="#000000" transform="translate(0,945)"/>
<path d="M0 0 C26.07 0 52.14 0 79 0 C75.68368346 1.65815827 72.58950526 2.78049775 69.0612793 3.8503418 C43.71629034 11.65971465 23.95921947 27.7651297 11 51 C6.48852172 60.01295329 3.5116179 69.2785613 1 79 C0.67 79 0.34 79 0 79 C0 52.93 0 26.86 0 0 Z " fill="#000000" transform="translate(0,0)"/>
<path d="M0 0 C1.5 1.3125 1.5 1.3125 3 3 C3 3.99 3 4.98 3 6 C-33.41197457 6.79289484 -69.82621077 7.19593842 -106.24486542 7.52910233 C-109.82497196 7.56203974 -113.40507065 7.59573559 -116.98516846 7.62960815 C-129.43727518 7.74648644 -141.88931127 7.84922573 -154.3417263 7.92714024 C-160.76697774 7.9696416 -167.19132362 8.03768195 -173.61609459 8.12667561 C-177.63602164 8.1791969 -181.65599033 8.21571922 -185.67612076 8.24864006 C-187.54130698 8.26754668 -189.40643737 8.29345966 -191.27141953 8.3269062 C-193.8180312 8.37178181 -196.36370394 8.39182981 -198.91064453 8.40600586 C-200.01699438 8.4348842 -200.01699438 8.4348842 -201.14569473 8.46434593 C-206.43186678 8.45597444 -208.988496 7.17557973 -213 4 C-212.67 3.01 -212.34 2.02 -212 1 C-211.01 1.33 -210.02 1.66 -209 2 C-207.23100473 2.11185861 -205.45816938 2.1663978 -203.68579102 2.18945312 C-202.56554535 2.2062059 -201.44529968 2.22295868 -200.29110718 2.24021912 C-199.04133087 2.25375931 -197.79155457 2.2672995 -196.50390625 2.28125 C-195.14286868 2.29919093 -193.78183564 2.31747761 -192.42080688 2.33607483 C-188.61117396 2.38655325 -184.8014879 2.4302208 -180.99175644 2.47252274 C-178.56289479 2.49999553 -176.13406288 2.52933575 -173.70523071 2.55929565 C-115.80627218 3.27118329 -57.9017757 3.59784847 0 4 C0 2.68 0 1.36 0 0 Z " fill="#C7DBE7" transform="translate(839,898)"/>
<path d="M0 0 C0.99 0.33 1.98 0.66 3 1 C2.89454538 32.60915917 2.78466756 64.21829926 2.66888306 95.82742216 C2.65511869 99.58611986 2.64139082 103.3448177 2.62768555 107.10351562 C2.62495724 107.85159012 2.62222894 108.59966461 2.61941796 109.37040803 C2.57572278 121.37488147 2.53496202 133.37936308 2.49534739 145.3838506 C2.4544238 157.76449114 2.41020407 170.14511696 2.36312145 182.52573562 C2.33686617 189.45318934 2.31199519 196.3806415 2.29092598 203.3081131 C2.19307524 235.21693008 1.89601008 267.10278569 1 299 C0.67 299 0.34 299 0 299 C0 200.33 0 101.66 0 0 Z " fill="#9EC7DB" transform="translate(416,601)"/>
<path d="M0 0 C1.03556163 -0.00233999 1.03556163 -0.00233999 2.0920437 -0.00472724 C4.41809873 -0.00873256 6.74408908 -0.00554898 9.07014465 -0.00241089 C10.73440591 -0.0037655 12.39866686 -0.00554577 14.06292725 -0.00772095 C18.60194303 -0.01229842 23.14093618 -0.01050174 27.67995238 -0.00734186 C32.45408549 -0.00480773 37.22821667 -0.00715987 42.00234985 -0.00872803 C50.05196986 -0.01055175 58.10158072 -0.00814345 66.15119934 -0.00338745 C75.37782865 0.00200203 84.60443568 0.00033259 93.8310644 -0.00521386 C101.79245954 -0.00980391 109.75384808 -0.0103656 117.71524411 -0.00777519 C122.45076281 -0.00623742 127.18627119 -0.00594707 131.92178917 -0.00931168 C154.0898698 -0.02296779 176.21109961 0.22176697 198.36238098 1.12698364 C197.61238098 5.87698364 197.61238098 5.87698364 195.36238098 8.12698364 C195.69238098 6.47698364 196.02238098 4.82698364 196.36238098 3.12698364 C170.68460998 3.01016193 145.00687883 2.922001 119.32889557 2.86792278 C107.40604771 2.84214548 95.48336502 2.80700375 83.56062317 2.74978638 C73.16828567 2.69993722 62.7760678 2.66768919 52.38361406 2.65654117 C46.88126346 2.65002505 41.37925505 2.6347197 35.87701416 2.59833336 C30.69612495 2.56435028 25.51571832 2.55393549 20.33472824 2.56144524 C18.43524425 2.56007174 16.53574383 2.55015315 14.63635635 2.53095627 C12.03740375 2.50598141 9.44025956 2.51209378 6.84126282 2.52571106 C6.09415779 2.51114685 5.34705276 2.49658265 4.57730818 2.4815771 C-0.51831851 2.55346666 -3.63415098 3.93482992 -7.79507971 6.85905963 C-9.67359225 8.15173824 -11.57974905 9.15097894 -13.63761902 10.12698364 C-13.06324116 6.24993309 -11.21033847 4.01154788 -8.63761902 1.12698364 C-5.74208525 -0.32078324 -3.23627922 0.00098318 0 0 Z " fill="#B7D6E6" transform="translate(602.6376190185547,346.8730163574219)"/>
<path d="M0 0 C0.99 0.33 1.98 0.66 3 1 C2.67 35.65 2.34 70.3 2 106 C1.34 106 0.68 106 0 106 C0 71.02 0 36.04 0 0 Z " fill="#B9D4E1" transform="translate(416,601)"/>
<path d="M0 0 C0.33 0.66 0.66 1.32 1 2 C0.40832031 2.32613281 -0.18335938 2.65226562 -0.79296875 2.98828125 C-4.90329876 5.2613675 -8.99440514 7.54495799 -13 10 C-12.42562214 6.12294944 -10.57271945 3.88456423 -8 1 C-5.29120665 -0.35439668 -2.99066732 -0.06501451 0 0 Z " fill="#C4DAE7" transform="translate(602,347)"/>
</svg>
