<?xml version="1.0" encoding="UTF-8"?>
<svg version="1.1" xmlns="http://www.w3.org/2000/svg" width="1024" height="1024">
<path d="M0 0 C337.92 0 675.84 0 1024 0 C1024 337.92 1024 675.84 1024 1024 C686.08 1024 348.16 1024 0 1024 C0 686.08 0 348.16 0 0 Z " fill="#007CB7" transform="translate(0,0)"/>
<path d="M0 0 C63.36 0 126.72 0 192 0 C192 156.09 192 312.18 192 473 C192.66 473 193.32 473 194 473 C194.09667969 472.42636719 194.19335938 471.85273437 194.29296875 471.26171875 C195.15618611 468.50037703 196.43224387 467.01197146 198.3125 464.8125 C202.1041642 460.21901434 205.54155729 455.45453097 208.9375 450.5625 C213.10708675 444.57052762 217.41330092 438.84813225 222.16015625 433.296875 C224.02909892 430.96367269 225.46497314 428.56222529 227 426 C228.60352696 423.85290458 230.22089997 421.73195696 231.875 419.625 C234.62797335 416.09455277 237.34699165 412.57221221 239.875 408.875 C242 406 242 406 244.1875 404.375 C246.16929719 403.13008449 246.16929719 403.13008449 246.765625 400.88671875 C248.45629455 396.93290611 250.94565243 393.82756237 253.5625 390.4375 C254.64472083 389.01837372 255.7267501 387.59910134 256.80859375 386.1796875 C257.34597168 385.47811523 257.88334961 384.77654297 258.43701172 384.05371094 C259.8824805 382.15441644 261.30768994 380.24239178 262.72265625 378.3203125 C263.1312085 377.76674072 263.53976074 377.21316895 263.96069336 376.64282227 C265.06092108 375.1494748 266.15942053 373.65485447 267.2578125 372.16015625 C269 370 269 370 271 369 C271.29648437 368.24976563 271.59296875 367.49953125 271.8984375 366.7265625 C273.1012949 363.74927717 274.5653995 361.82846832 276.625 359.375 C280.38756472 354.81057723 283.84583323 350.09438825 287.23828125 345.25 C289 343 289 343 292 341 C293.12528518 339.19016792 293.12528518 339.19016792 294.125 337.0625 C296.75502834 332.12626063 300.08794482 328.07991704 303.6796875 323.8125 C305.87780351 321.14811695 307.92339513 318.43006914 309.9375 315.625 C312.96366376 311.41258005 316.04188024 307.24854173 319.1875 303.125 C319.98542969 302.07570313 320.78335937 301.02640625 321.60546875 299.9453125 C324 297 324 297 326.67578125 294.4296875 C329.06919788 291.92766205 329.81127608 290.18974251 331 287 C332.27373534 285.20615606 333.61073444 283.45593639 335 281.75 C335.70125 280.87859375 336.4025 280.0071875 337.125 279.109375 C339 277 339 277 341 276 C341.29519531 275.25234375 341.59039063 274.5046875 341.89453125 273.734375 C343.11165485 270.72382193 344.61546415 268.74132798 346.6875 266.25 C347.39519531 265.38761719 348.10289062 264.52523438 348.83203125 263.63671875 C349.54746094 262.76660156 350.26289062 261.89648438 351 261 C352.29803421 259.35918394 353.5901597 257.71366793 354.875 256.0625 C355.42929687 255.35222656 355.98359375 254.64195312 356.5546875 253.91015625 C357.76112233 252.31570589 358.89091071 250.66363394 360 249 C360.66 249 361.32 249 362 249 C362.309375 248.01 362.309375 248.01 362.625 247 C363.305625 245.515 363.305625 245.515 364 244 C364.3752201 243.00453533 364.3752201 243.00453533 364.7580204 241.98896027 C366.20738658 239.20479311 367.40551522 237.81178813 370 236 C376.50997787 234.76856736 382.98762087 234.98961693 389.59130859 235.09179688 C391.62172353 235.094054 393.65214501 235.09278576 395.68255615 235.08825684 C401.19086205 235.0859612 406.69777464 235.13299781 412.20575666 235.1888485 C417.96324062 235.23885529 423.72075645 235.24355804 429.47842407 235.25305176 C440.37956711 235.27791787 451.2800684 235.34356891 462.18092883 235.42384768 C474.59186561 235.51326347 487.00283302 235.55725204 499.41401172 235.59741116 C524.94303028 235.68103443 550.47147919 235.8217505 576 236 C575.07317334 241.96392806 571.89751388 245.16047466 567.69921875 249.23046875 C564.58248377 252.4283922 561.82616356 255.81021812 559.0625 259.3125 C558.53543457 259.97749512 558.00836914 260.64249023 557.46533203 261.32763672 C555.97284835 263.21528466 554.48585536 265.10713339 553 267 C552.32582031 267.85207031 551.65164063 268.70414062 550.95703125 269.58203125 C550.43496094 270.25621094 549.91289063 270.93039062 549.375 271.625 C548.94960938 272.17414063 548.52421875 272.72328125 548.0859375 273.2890625 C546.89620246 275.02747607 546.89620246 275.02747607 546.1640625 277.3046875 C544.64730878 280.81663403 542.39687944 283.56054747 540 286.5 C539.00703774 287.73766006 538.01486862 288.97595682 537.0234375 290.21484375 C536.52038086 290.84116699 536.01732422 291.46749023 535.49902344 292.11279297 C534.05166788 293.93495232 532.63331849 295.77528054 531.2265625 297.62890625 C530.78828125 298.20640625 530.35 298.78390625 529.8984375 299.37890625 C528.69381307 300.97152322 527.49137121 302.56579036 526.2890625 304.16015625 C524.01622682 306.97986877 521.60443561 309.4870245 519 312 C516.88521508 313.8370419 516.88521508 313.8370419 516.17578125 316.21875 C514.69058513 319.73190494 512.5286474 322.52788062 510.1875 325.5 C509.76146484 326.05558594 509.33542969 326.61117188 508.89648438 327.18359375 C506.14886759 330.71683773 503.18890014 333.85096111 500 337 C498.24132621 338.98279264 496.51468319 340.97077102 494.8125 343 C494.37486328 343.50789063 493.93722656 344.01578125 493.48632812 344.5390625 C490.9268182 347.58702852 489.43668448 350.32783446 488 354 C486.5791519 356.02144142 485.09195256 357.9969306 483.5625 359.9375 C483.12147949 360.50106201 482.68045898 361.06462402 482.22607422 361.64526367 C480.82341742 363.43502213 479.41259421 365.21807786 478 367 C476.20675265 369.26958881 474.41542494 371.54068417 472.625 373.8125 C472.16851074 374.39088623 471.71202148 374.96927246 471.24169922 375.56518555 C467.82355291 379.91138656 464.4918798 384.3168829 461.1875 388.75 C455.13555464 396.86902158 448.92921342 404.86365089 442.68725586 412.8371582 C441.49062989 414.37107652 440.2992615 415.90910289 439.11157227 417.44995117 C438.49209717 418.25279541 437.87262207 419.05563965 437.234375 419.8828125 C436.67331055 420.61258301 436.11224609 421.34235352 435.53417969 422.09423828 C433.53263404 424.58056312 431.25626836 426.74373164 429 429 C426.25998645 432.2754185 423.63458903 435.63955481 421 439 C420.13053023 440.10181659 419.26072458 441.2033682 418.390625 442.3046875 C413.40624341 448.62202905 408.46545604 454.97072187 403.57885742 461.36401367 C400.30305195 465.63912793 396.92481363 469.82346518 393.49609375 473.9765625 C391.81928875 476.02589898 391.81928875 476.02589898 391 479 C391.60360352 479.25724854 392.20720703 479.51449707 392.82910156 479.77954102 C395.22603601 481.12707535 396.19680065 482.27302055 397.734375 484.52734375 C398.22180176 485.23141357 398.70922852 485.9354834 399.21142578 486.66088867 C399.71915527 487.41217041 400.22688477 488.16345215 400.75 488.9375 C401.82491998 490.49520647 402.90044066 492.05249858 403.9765625 493.609375 C404.49637695 494.36669922 405.01619141 495.12402344 405.55175781 495.90429688 C407.36672808 498.53068001 409.23679311 501.11337305 411.125 503.6875 C414.06701061 507.71148972 416.97970664 511.75486259 419.875 515.8125 C420.2982959 516.40546875 420.7215918 516.9984375 421.15771484 517.609375 C423.23124112 520.51561434 425.30154633 523.42408862 427.3671875 526.3359375 C431.48144698 532.12681717 435.64096768 537.87793411 439.87597656 543.58129883 C446.43524899 552.41763861 452.77536628 561.38266937 459.02880859 570.43774414 C463.88905631 577.45529271 468.88815704 584.35350849 473.98120117 591.20336914 C477.83631853 596.3953105 481.60155591 601.64165501 485.3125 606.9375 C489.30482181 612.63257267 493.39200618 618.23492378 497.58984375 623.78125 C505.18341469 633.86711973 512.47068749 644.18295234 519.62109375 654.5859375 C525.92986066 663.69707894 532.52530298 672.61471158 539.0625 681.5625 C541.78588512 685.2979155 544.45854805 689.06588904 547.11474609 692.84912109 C552.54834915 700.58756967 558.0894593 708.23587182 563.71289062 715.83740234 C572.44970694 727.65228843 581.0231272 739.58033578 589.4765625 751.59936523 C593.15527684 756.82277657 596.87981583 762.01157749 600.625 767.1875 C601.16342529 767.93257812 601.70185059 768.67765625 602.2565918 769.4453125 C604.84559778 773.02688224 607.44005724 776.60430507 610.04296875 780.17578125 C610.96630575 781.450405 611.88949148 782.72513836 612.8125 784 C613.23934082 784.58160889 613.66618164 785.16321777 614.10595703 785.76245117 C617 789.77318424 617 789.77318424 617 792 C589.38410413 792.32712499 561.7684988 792.57396008 534.15105534 792.72537041 C521.32750221 792.79754398 508.50515322 792.89592736 495.68237305 793.05615234 C484.50517917 793.19574852 473.32885729 793.28602682 462.1508159 793.31723893 C456.23221312 793.33548383 450.31610471 793.37831162 444.39830208 793.48022079 C438.82510046 793.57541608 433.25541401 793.60453428 427.68147659 793.58350754 C425.63872714 793.58735234 423.5958576 793.61511808 421.55381203 793.66887665 C406.50141122 794.04563232 406.50141122 794.04563232 402.30417514 790.61316919 C399.00862259 786.8156265 397.03212984 782.56207745 395 778 C394.1377911 776.65903661 393.24157331 775.33798163 392.28515625 774.0625 C390.69729277 771.87465295 389.11304867 769.68440477 387.53125 767.4921875 C387.11230469 766.91436523 386.69335938 766.33654297 386.26171875 765.74121094 C384.18559645 762.87609789 382.12217406 760.00195337 380.0625 757.125 C379.65265869 756.55265625 379.24281738 755.9803125 378.82055664 755.390625 C375.18095704 750.28937581 371.63770951 745.12423004 368.09912109 739.95263672 C364.78570387 735.11906877 361.40621583 730.33824306 357.98706055 725.57910156 C352.4898221 717.91595763 347.10603586 710.17286758 341.70556641 702.44140625 C336.82061393 695.44891773 331.92416829 688.46493323 327 681.5 C321.36588537 673.53089133 315.75746358 665.54450518 310.203125 657.51953125 C300.38842606 643.33537255 300.38842606 643.33537255 290.18652344 629.42895508 C288.32746527 626.94547208 286.98967898 624.96903694 286 622 C285.01 621.67 284.02 621.34 283 621 C281.94773272 619.02699884 280.95211112 617.02323613 280 615 C279.443125 614.2575 278.88625 613.515 278.3125 612.75 C277 611 277 611 277 609 C276.01 608.67 275.02 608.34 274 608 C273.25760978 606.31199541 272.52277705 604.61972128 271.84863281 602.90332031 C270.49157967 599.8597109 268.45721691 597.45959305 266.375 594.875 C261.76913118 589.05401924 257.51200133 583.05611848 253.32373047 576.92578125 C250.67913852 573.07839259 247.99246234 569.2602901 245.3125 565.4375 C244.72033691 564.59179443 244.12817383 563.74608887 243.51806641 562.87475586 C240.43898095 558.47765651 237.35628347 554.08312688 234.26953125 549.69140625 C233.05452326 547.96105281 231.8396767 546.23058601 230.625 544.5 C230.04041016 543.66799072 229.45582031 542.83598145 228.85351562 541.97875977 C224.96725615 536.43084677 221.19768436 530.82608682 217.55078125 525.1171875 C216.00884311 522.75783656 216.00884311 522.75783656 213 521 C211.97707907 519.0116256 210.9809079 517.00943268 210 515 C208.44996446 512.71288462 206.88349975 510.47476653 205.25 508.25 C201.10137697 502.5423403 197.04813648 496.78305212 193 491 C192.67 590.33 192.34 689.66 192 792 C128.64 792 65.28 792 0 792 C0 530.64 0 269.28 0 0 Z " fill="#FDFDFD" transform="translate(225,112)"/>
<path d="M0 0 C63.36 0 126.72 0 192 0 C192 156.09 192 312.18 192 473 C192.66 473.33 193.32 473.66 194 474 C193.01 474 192.02 474 191 474 C191 317.91 191 161.82 191 1 C128.63 1 66.26 1 2 1 C2 261.37 2 521.74 2 790 C64.37 790 126.74 790 191 790 C191 690.67 191 591.34 191 489 C191.99 489 192.98 489 194 489 C193.67 489.66 193.34 490.32 193 491 C192.90127154 492.64666536 192.86613418 494.29730877 192.8613348 495.94692421 C192.85586036 496.99940838 192.85038591 498.05189254 192.84474558 499.13627017 C192.84376747 500.30161992 192.84278936 501.46696967 192.84178162 502.66763306 C192.83684364 503.89849117 192.83190566 505.12934928 192.82681805 506.39750612 C192.81407375 509.82487001 192.80580864 513.25219296 192.79939139 516.67957115 C192.79140258 520.37147061 192.7776996 524.06334925 192.76467896 527.75523376 C192.7428946 534.15529353 192.7247573 540.55535538 192.70907402 546.95543289 C192.6863932 556.20895112 192.65824792 565.46244632 192.62875474 574.71594505 C192.58105687 589.72793759 192.53779865 604.73993953 192.49731445 619.75195312 C192.45797069 634.33757255 192.41653577 648.92318357 192.37231445 663.50878906 C192.36956495 664.41652148 192.36681544 665.32425389 192.36398262 666.25949335 C192.34246436 673.35820958 192.32082454 680.45692543 192.29914629 687.55564117 C192.19285918 722.37041053 192.09717873 757.18520173 192 792 C128.64 792 65.28 792 0 792 C0 530.64 0 269.28 0 0 Z " fill="#B7D2E0" transform="translate(225,112)"/>
<path d="M0 0 C1.37562854 1.28965176 2.70766393 2.62689293 4 4 C4 4.66 4 5.32 4 6 C-66.29 6 -136.58 6 -209 6 C-209.66 4.35 -210.32 2.7 -211 1 C-210.34 1 -209.68 1 -209 1 C-208.67 1.66 -208.34 2.32 -208 3 C-139.03 3.33 -70.06 3.66 1 4 C0.67 2.68 0.34 1.36 0 0 Z " fill="#C1D6E3" transform="translate(838,898)"/>
<path d="M0 0 C0.84462949 -0.00427212 1.68925897 -0.00854425 2.55948329 -0.01294583 C5.3944199 -0.0211927 8.22788245 0.00633668 11.06268311 0.03364563 C13.0928036 0.03505573 15.12292665 0.03426486 17.15304565 0.03143311 C22.66938431 0.02999609 28.18518148 0.05943245 33.70139408 0.09430289 C39.46427238 0.12551864 45.22716251 0.12849336 50.9901123 0.13442993 C61.90530019 0.14998241 72.82023826 0.19103004 83.73531604 0.24117738 C96.16077194 0.29702703 108.58623966 0.32454636 121.0117898 0.34965456 C146.57414024 0.40194452 172.13626878 0.48991424 197.69842529 0.60127258 C197.32342529 3.03877258 197.32342529 3.03877258 196.69842529 5.60127258 C196.03842529 5.93127258 195.37842529 6.26127258 194.69842529 6.60127258 C195.35842529 4.95127258 196.01842529 3.30127258 196.69842529 1.60127258 C170.48169116 1.59171878 144.2651815 1.61630272 118.048522 1.68155098 C105.87570653 1.71105047 93.70306576 1.72936973 81.5302124 1.72138977 C70.92059655 1.71446294 60.31125105 1.72849221 49.7017017 1.76770866 C44.08370481 1.78774222 38.46613252 1.79726619 32.84811211 1.78169632 C27.55952628 1.76737052 22.27175195 1.78107706 16.98327065 1.81622505 C15.04309409 1.82418952 13.10284434 1.82193841 11.16269684 1.80866432 C8.51047369 1.79205387 5.86096359 1.81238347 3.20890808 1.84178162 C2.44332642 1.82819552 1.67774475 1.81460942 0.88896364 1.80061162 C-5.13454995 1.93013098 -8.1985103 4.31922038 -12.30157471 8.60127258 C-12.30157471 5.60127258 -12.30157471 5.60127258 -10.82042313 2.95135212 C-7.3866435 -0.25235604 -4.46294447 -0.08228961 0 0 Z " fill="#CCDFEB" transform="translate(603.3015747070313,347.3987274169922)"/>
<path d="M0 0 C1.85625 0.1546875 1.85625 0.1546875 3.75 0.3125 C3.75 0.6425 3.75 0.9725 3.75 1.3125 C2.450625 1.6528125 2.450625 1.6528125 1.125 2 C-2.86778814 3.55275095 -5.09248305 5.45569895 -8.25 8.3125 C-8.25 5.3125 -8.25 5.3125 -6.75 2.625 C-3.99967064 0.08094534 -3.53690438 -0.01254221 0 0 Z " fill="#C4D8E5" transform="translate(599.25,347.6875)"/>
</svg>
